<svg xmlns="http://www.w3.org/2000/svg" viewBox="0 0 24 24" fill="none" stroke="currentColor" stroke-width="1.5" stroke-linecap="round" stroke-linejoin="round">
  <!-- Back chat bubble -->
  <path d="M21 14.5c0 1.5-1 2.5-2.5 2.5H9l-4 3.5V7c0-1.5 1-2.5 2.5-2.5H18.5c1.5 0 2.5 1 2.5 2.5v7.5z"/>
  
  <!-- Front chat bubble -->
  <path d="M17 11c0 1.2-0.8 2-2 2H8l-3 2.5V6c0-1.2 0.8-2 2-2h8c1.2 0 2 0.8 2 2v5z"/>
  
  <!-- Arrow -->
  <line x1="8" y1="11" x2="13" y2="6" stroke-width="2"/>
  <polyline points="10,5.5 13,5.5 13,8.5" stroke-width="2"/>
  
  <!-- Sparkle with pencil tip -->
  <circle cx="17.5" cy="3.5" r="0.5" fill="currentColor"/>
  <path d="M17 2l1 1.5" stroke-width="1.5"/>
  <path d="M19 3l-1.5 1" stroke-width="1.5"/>
  <path d="M16.5 4.5l0.5-1" stroke-width="1"/>
</svg>
